<svg width="48" height="48" viewBox="0 0 48 48" fill="none" xmlns="http://www.w3.org/2000/svg">
<g id="Icon/File Text/Line">
<path id="Fill" fill-rule="evenodd" clip-rule="evenodd" d="M28.6 4.66L39.48 16.66C39.8134 17.0268 39.9987 17.5043 40 18V39L40 39.0007C39.9667 41.7951 37.6744 44.0333 34.88 44H13.12L13.1193 44C10.3249 44.0329 8.03293 41.7943 8 39V8.99999L8.00001 8.99928C8.03335 6.20492 10.3256 3.96667 13.12 4H27.12C27.6844 4.00133 28.2219 4.24104 28.6 4.66ZM33.48 16L28 10V14.3L27.9981 14.3277C27.9455 15.1987 28.609 15.9474 29.48 16H33.48ZM34.88 40H13.12C12.5356 40.034 12.0342 39.5878 12.0002 39.0034L12 39V9C12.0322 8.41546 12.5321 7.96766 13.1166 7.99981L13.12 8H24V14.3C23.9328 17.3668 26.3537 19.9128 29.42 20H36V39C35.9679 39.5845 35.4679 40.0323 34.8834 40.0002L34.88 40ZM18 28H24C25.1046 28 26 27.1046 26 26C26 24.8954 25.1046 24 24 24H18C16.8954 24 16 24.8954 16 26C16 27.1046 16.8954 28 18 28ZM18 32C16.8954 32 16 32.8954 16 34C16 35.1046 16.8954 36 18 36H30C31.1046 36 32 35.1046 32 34C32 32.8954 31.1046 32 30 32H18Z" fill="#212121"/>
</g>
</svg>
