<svg width="48" height="48" viewBox="0 0 48 48" fill="none" xmlns="http://www.w3.org/2000/svg">
<g id="Icon/Person/Line">
<path id="Fill" fill-rule="evenodd" clip-rule="evenodd" d="M24 22C28.4183 22 32 18.4183 32 14C32 9.58172 28.4183 6 24 6C19.5817 6 16 9.58172 16 14C16 18.4183 19.5817 22 24 22ZM24 10C26.2091 10 28 11.7909 28 14C28 16.2091 26.2091 18 24 18C21.7909 18 20 16.2091 20 14C20 11.7909 21.7909 10 24 10ZM10 40C10 32.268 16.268 26 24 26C31.732 26 38 32.268 38 40C38 41.1046 37.1046 42 36 42C34.8954 42 34 41.1046 34 40C34 34.4772 29.5228 30 24 30C18.4772 30 14 34.4772 14 40C14 41.1046 13.1046 42 12 42C10.8954 42 10 41.1046 10 40Z" fill="#212121"/>
</g>
</svg>
